<svg xmlns="http://www.w3.org/2000/svg" version="1.1" xmlns:xlink="http://www.w3.org/1999/xlink" viewBox="0 0 200 200"><rect width="200" height="200" fill="url('#gradient')"></rect><defs><linearGradient id="gradient" gradientTransform="rotate(45 0.5 0.5)"><stop offset="0%" stop-color="#2163bb"></stop><stop offset="100%" stop-color="#42e363"></stop></linearGradient></defs><g><g fill="#101011" transform="matrix(7.800253914515446,0,0,7.800253914515446,1.6364933531818053,155.45918124013667)" stroke="#bac6cd" stroke-width="0.2"><path d="M9.89-8.57L9.89-6.03L4.50-6.03L4.50-2.64L10.87-2.64L10.87 0L1.07 0L1.07-14.22L10.89-14.22L10.89-11.57L4.50-11.57L4.50-8.57L9.89-8.57ZM24.15-14.22L24.15 0L20.74 0L20.74-5.94L15.69-5.94L15.69 0L12.27 0L12.27-14.22L15.69-14.22L15.69-8.57L20.74-8.57L20.74-14.22L24.15-14.22Z"></path></g></g></svg>